<?xml version="1.0" encoding="UTF-8"?>
<svg width="88" height="94" xmlns="http://www.w3.org/2000/svg">
  <!-- Ears -->
  <rect x="25" y="10" width="5" height="25" fill="black"/>
  <rect x="26" y="12" width="3" height="21" fill="#F5EBDC"/>
  <rect x="27" y="15" width="1" height="15" fill="#FFB6C1"/>
  
  <rect x="35" y="10" width="5" height="25" fill="black"/>
  <rect x="36" y="12" width="3" height="21" fill="#F5EBDC"/>
  <rect x="37" y="15" width="1" height="15" fill="#FFB6C1"/>
  
  <!-- Head -->
  <rect x="20" y="25" width="25" height="29" fill="black"/>
  <rect x="21" y="26" width="23" height="27" fill="#F5EBDC"/>
  
  <!-- Eyes -->
  <rect x="28" y="34" width="2" height="2" fill="black"/>
  <rect x="35" y="34" width="2" height="2" fill="black"/>
  <rect x="28" y="33" width="1" height="1" fill="white"/>
  <rect x="35" y="33" width="1" height="1" fill="white"/>
  
  <!-- Nose -->
  <rect x="32" y="42" width="1" height="1" fill="#FF8C69"/>
  
  <!-- Cheeks -->
  <rect x="25" y="40" width="1" height="1" fill="#FFB6C1"/>
  <rect x="39" y="40" width="1" height="1" fill="#FFB6C1"/>
  
  <!-- Body -->
  <rect x="22" y="55" width="21" height="29" fill="black"/>
  <rect x="23" y="56" width="19" height="27" fill="#ADD8E6"/>
  
  <!-- Arms -->
  <rect x="18" y="60" width="4" height="15" fill="black"/>
  <rect x="19" y="61" width="2" height="13" fill="#F5EBDC"/>
  
  <rect x="43" y="60" width="4" height="15" fill="black"/>
  <rect x="44" y="61" width="2" height="13" fill="#F5EBDC"/>
  
  <!-- Legs -->
  <rect x="26" y="85" width="6" height="9" fill="black"/>
  <rect x="27" y="86" width="4" height="7" fill="#F5EBDC"/>
  
  <rect x="33" y="85" width="6" height="9" fill="black"/>
  <rect x="34" y="86" width="4" height="7" fill="#F5EBDC"/>
</svg>